<?xml version="1.0" standalone="no"?>
<!DOCTYPE svg PUBLIC "-//W3C//DTD SVG 20010904//EN"
 "http://www.w3.org/TR/2001/REC-SVG-20010904/DTD/svg10.dtd">
<svg version="1.0" xmlns="http://www.w3.org/2000/svg"
 width="75.000000pt" height="75.000000pt" viewBox="0 0 75.000000 75.000000"
 preserveAspectRatio="xMidYMid meet">
<metadata>
Created by potrace 1.11, written by Peter Selinger 2001-2013
</metadata>
<g transform="translate(0.000000,75.000000) scale(0.100000,-0.100000)"
fill="#000000" stroke="none">
<path d="M0 469 c0 -184 3 -278 10 -274 5 3 10 18 10 33 0 33 27 58 82 78 69
24 160 13 166 -20 4 -17 -2 -18 -56 -11 -78 9 -122 -11 -122 -55 0 -28 2 -30
28 -24 15 4 34 10 43 15 19 9 90 -13 119 -38 28 -24 28 -92 0 -116 -50 -42
-106 -51 -192 -31 -5 1 -13 2 -18 3 -6 0 -20 12 -32 26 -30 35 -38 31 -38 -15
l0 -40 233 0 c164 1 227 4 214 11 -9 6 -27 12 -39 14 -27 6 -29 8 -18 25 7 11
15 12 49 2 53 -16 105 3 115 42 10 39 1 45 -57 39 -70 -7 -133 22 -138 64 -9
63 0 80 49 103 68 32 153 24 196 -19 28 -28 30 -36 29 -93 -2 -121 -11 -139
-86 -170 l-42 -17 105 2 105 2 2 373 2 372 -359 0 -360 0 0 -281z m246 250 c3
-6 5 -67 5 -135 -2 -118 -1 -124 18 -124 11 0 22 -4 25 -9 12 -18 -22 -29 -89
-27 -55 1 -70 4 -70 16 0 10 12 16 33 18 28 3 31 6 21 18 -10 12 -10 20 -1 34
7 12 8 21 2 25 -6 3 -10 31 -10 62 0 47 -3 56 -20 60 -20 5 -19 6 5 29 45 41
69 52 81 33z m283 -1 c73 -26 81 -40 81 -146 0 -88 -2 -96 -25 -118 -40 -37
-97 -48 -163 -32 -63 15 -82 38 -32 38 17 0 39 -4 48 -9 35 -19 125 50 106 81
-3 5 -28 6 -55 2 -41 -6 -60 -2 -100 16 l-49 23 0 51 c0 57 11 69 85 92 52 16
61 16 104 2z"/>
<path d="M436 669 c-39 -31 -36 -76 7 -94 51 -21 117 -1 88 28 -6 6 -11 23
-11 39 0 17 -7 31 -19 38 -27 14 -35 13 -65 -11z"/>
<path d="M447 262 c-26 -28 -22 -79 6 -88 45 -15 135 -1 106 17 -7 4 -14 19
-14 33 -1 13 -7 32 -14 40 -18 22 -64 20 -84 -2z"/>
<path d="M118 163 c-40 -21 -39 -72 1 -96 60 -35 111 -11 111 53 0 55 -52 75
-112 43z"/>
</g>
</svg>
